<svg xmlns="http://www.w3.org/2000/svg" viewBox="0 0 1481.59 573.19"><defs><style>.cls-1{fill:#ca2026;}</style></defs><title>Asset 1</title><g id="Layer_2" data-name="Layer 2"><g id="Layer_1-2" data-name="Layer 1"><path class="cls-1" d="M112.08,5.65h286l-20.91,95H205.34l-9.61,44.09H363.6l-20.91,95H174.82l-31.65,143H29Z"/><path class="cls-1" d="M607.78,334H463.65l-25.44,48.61H308.78l222.13-377H674.47l56,377H612.3Zm-93.83-95h85.91l-13-138.48Z"/><path class="cls-1" d="M815.21,236.83c27.69,33.91,80.82,56.52,130,56.52,23.17,0,31.65-9.05,31.65-18.65,0-13.57-18.09-22-47.48-31.66-53.13-16.95-130-44.08-130-123.21C799.38,69.52,850.82,0,958.21,0c61.61,0,123.21,21.48,164.47,62.74L1056,140.17c-28.26-30.52-77.44-45.78-110.22-45.78-20.91,0-29.39,9-29.39,19.22,0,12.43,19.78,20.91,48,30,53.7,17,131.13,45.79,131.13,117.57,0,70.09-60.47,128.3-157.69,128.3-80.26,0-151.48-28.82-188.78-73.47Z"/><path class="cls-1" d="M1244.77,105.13H1143.59l22.05-99.48h315.95l-22,99.48H1358.94l-61,277.52H1183.72Z"/><path d="M14.36,506.84H47.1c12.61,0,20.81,8.6,20.81,19.25,0,9.48-6.35,25.8-28.92,25.8H24.14L19.74,572H0Zm33.13,21.3c0-3-2.05-4.89-6-4.89h-11L28,534.69H39.58C44.56,534.69,47.49,532.05,47.49,528.14Z"/><path d="M190.45,563.61H165.54l-4.4,8.41H138.76l38.4-65.18H202L211.66,572H191.23ZM174.23,547.2h14.85l-2.24-24Z"/><path d="M335.37,551.1h-7.92L322.86,572H303.12l14.37-65.18h31.66c11.82,0,21.89,7.72,21.89,19.74A24.92,24.92,0,0,1,355,550l6.45,22H339.77Zm15.24-22.57c0-3.22-2.24-5.28-5.76-5.28H333.61l-2.54,11.44H342.6C347.39,534.69,350.61,532.54,350.61,528.53Z"/><path d="M480.87,524H463.38l3.81-17.2h54.63L518,524h-17.4l-10.55,48H470.32Z"/><path d="M616.8,506.84h19.74L622.17,572H602.44Z"/><path d="M745.2,524H727.71l3.81-17.2h54.63L782.33,524H764.94l-10.55,48H734.65Z"/><path d="M881.13,506.84h19.74L886.5,572H866.76Z"/><path d="M1026.92,505.76c19.25,0,33.91,12.12,33.91,29.71,0,20.81-16.41,37.72-39.08,37.72-19.35,0-34-12.22-34-29.9C987.74,522.47,1004.25,505.76,1026.92,505.76Zm-1.17,17.4c-10.36,0-17.59,8.79-17.59,18.76,0,8,5.87,13.87,14.66,13.87,10.36,0,17.59-8.79,17.59-18.76C1040.41,529,1034.55,523.16,1025.75,523.16Z"/><path d="M1175.55,535.27l-8,36.75H1147.8l14.37-65.18h20.32l15,34.59,7.62-34.59h19.74L1210.54,572h-19Z"/><path d="M1318.71,546.8c4.79,5.87,14,9.78,22.48,9.78,4,0,5.47-1.57,5.47-3.23,0-2.34-3.13-3.81-8.21-5.47-9.18-2.93-22.47-7.62-22.47-21.3,0-8.7,8.89-20.72,27.46-20.72,10.65,0,21.3,3.71,28.43,10.85l-11.53,13.38c-4.88-5.27-13.39-7.91-19-7.91-3.62,0-5.09,1.56-5.09,3.32,0,2.15,3.43,3.62,8.31,5.18,9.28,2.93,22.67,7.92,22.67,20.33,0,12.11-10.46,22.18-27.26,22.18-13.88,0-26.19-5-32.64-12.7Z"/></g></g></svg>